<svg xmlns="http://www.w3.org/2000/svg" width="1120" height="470" viewBox="0 0 1120 470"><rect width="1120" height="470" fill="white"/><g font-family="sans-serif" font-size="14" fill="#222"><text x="70" y="25">Application delivery over time (native writer receipts, not recorded FPS)</text><text x="70" y="60">Rolling writer rate, peak 80.0 Hz</text><text x="70" y="245">Writer interval, peak 909.9 ms</text><text x="70" y="410">0 → 119.21 seconds since recording launch; same monotonic domain as input/profile</text><text x="70" y="440">Writer intervals (ms): {&#x27;count&#x27;: 1254, &#x27;median_ms&#x27;: 14.67, &#x27;p95_ms&#x27;: 500.33, &#x27;p99_ms&#x27;: 508.47, &#x27;max_ms&#x27;: 909.94}; stationary gaps are not classified as stalls</text></g><path d="M70 80V200H1070 M70 260V380H1070" stroke="#aaa" fill="none"/><polyline points="78.39,200.00 86.78,200.00 95.17,200.00 103.55,200.00 111.94,167.00 120.33,179.00 128.72,168.50 137.11,185.00 145.50,195.50 153.89,194.00 162.27,197.00 170.66,197.00 179.05,197.00 187.44,188.00 195.83,161.00 204.22,195.50 212.61,197.00 220.99,197.00 229.38,197.00 237.77,197.00 246.16,197.00 254.55,144.50 262.94,120.50 271.33,152.00 279.72,197.00 288.10,197.00 296.49,197.00 304.88,197.00 313.27,197.00 321.66,197.00 330.05,197.00 338.44,197.00 346.82,197.00 355.21,197.00 363.60,197.00 371.99,197.00 380.38,197.00 388.77,197.00 397.16,197.00 405.54,197.00 413.93,197.00 422.32,197.00 430.71,197.00 439.10,161.00 447.49,83.00 455.88,95.00 464.26,197.00 472.65,197.00 481.04,194.00 489.43,197.00 497.82,197.00 506.21,197.00 514.60,197.00 522.98,119.00 531.37,81.50 539.76,116.00 548.15,197.00 556.54,197.00 564.93,161.00 573.32,80.00 581.70,84.50 590.09,195.50 598.48,197.00 606.87,194.00 615.26,92.00 623.65,102.50 632.04,171.50 640.43,197.00 648.81,197.00 657.20,194.00 665.59,189.50 673.98,197.00 682.37,197.00 690.76,197.00 699.15,197.00 707.53,197.00 715.92,197.00 724.31,197.00 732.70,197.00 741.09,197.00 749.48,197.00 757.87,197.00 766.25,197.00 774.64,197.00 783.03,197.00 791.42,197.00 799.81,197.00 808.20,197.00 816.59,197.00 824.97,197.00 833.36,197.00 841.75,197.00 850.14,197.00 858.53,174.50 866.92,179.00 875.31,179.00 883.69,179.00 892.08,174.50 900.47,179.00 908.86,192.50 917.25,197.00 925.64,195.50 934.03,191.00 942.41,197.00 950.80,197.00 959.19,197.00 967.58,192.50 975.97,198.50 984.36,197.00 992.75,197.00 1001.14,171.50 1009.52,188.00 1017.91,194.00 1026.30,191.00 1034.69,183.50 1043.08,197.00 1051.47,197.00 1059.86,197.00 1068.24,197.00 1070.00,198.50" stroke="#2374ab" fill="none"/><polyline points="104.02,378.36 104.72,369.04 105.42,368.97 105.73,375.09 105.90,377.30 105.94,379.32 106.25,375.13 106.97,368.82 107.30,374.71 108.14,366.80 108.52,374.03 108.68,377.53 108.76,378.68 109.54,367.78 110.24,368.91 110.58,374.73 110.66,378.74 110.76,378.40 110.76,380.00 111.02,375.99 111.72,368.92 112.40,369.31 112.96,371.22 113.11,377.62 113.81,369.01 114.51,368.99 115.20,369.09 115.90,369.02 116.61,368.88 117.16,371.27 117.30,377.88 118.00,368.98 118.69,369.10 119.53,366.90 119.60,378.85 120.44,366.83 120.82,373.93 120.85,379.59 121.37,371.82 121.50,377.99 122.04,371.45 122.19,377.71 122.65,372.71 122.77,378.13 122.85,378.79 123.55,368.94 123.69,377.81 125.36,353.71 125.43,378.98 125.54,378.26 126.18,369.84 126.37,377.02 126.47,378.41 127.07,370.57 128.18,362.62 128.39,376.62 129.78,358.20 129.92,377.84 130.14,376.55 131.04,365.84 131.42,373.97 131.96,371.55 132.14,377.13 134.04,350.16 136.17,346.56 136.17,380.00 138.37,345.33 138.65,375.58 142.77,315.22 147.04,312.95 147.66,370.28 148.29,370.11 151.15,334.93 155.66,309.17 159.54,319.00 163.73,314.06 167.93,314.07 172.12,314.05 176.32,314.09 180.52,313.98 182.23,353.05 185.44,329.53 185.46,379.68 186.11,369.75 186.16,379.30 186.77,370.34 186.79,379.65 187.45,369.64 187.50,379.30 188.13,370.04 188.13,380.00 188.83,368.96 188.83,380.00 189.48,369.84 189.55,378.95 190.16,370.34 190.23,378.85 190.83,370.68 190.87,379.32 191.58,368.86 191.64,379.12 192.20,371.17 192.22,379.64 192.86,369.88 192.91,379.19 193.56,369.91 193.56,380.00 194.21,369.75 194.26,379.12 194.91,369.91 194.96,379.24 195.56,370.43 195.59,379.58 196.24,369.79 196.31,378.85 201.53,298.06 205.73,313.95 209.92,314.12 214.11,314.13 218.35,313.23 222.50,314.90 226.71,313.79 230.88,314.39 235.08,313.97 239.27,314.12 243.48,313.84 247.66,314.23 249.82,346.12 249.82,380.00 250.98,361.81 251.08,378.39 251.25,377.25 251.34,378.59 251.51,377.40 251.64,377.86 251.83,377.11 251.93,378.40 251.93,380.00 252.14,376.77 252.25,378.17 252.42,377.37 252.48,379.11 252.55,378.79 252.66,378.31 252.81,377.72 252.93,378.06 253.03,378.46 253.14,378.16 253.22,378.75 253.35,378.07 253.43,378.77 253.56,377.86 253.72,377.57 253.73,379.83 253.80,378.85 253.88,378.76 253.92,379.31 254.04,378.19 254.09,379.17 254.24,377.65 254.37,378.00 254.47,378.34 254.50,379.53 254.57,378.99 254.64,378.87 254.69,379.24 254.82,378.00 254.98,377.35 255.04,379.13 256.14,362.66 256.38,376.19 256.43,379.29 256.60,377.36 256.80,376.89 256.87,378.78 257.02,377.62 257.18,377.50 257.34,377.55 257.47,377.88 257.48,379.98 257.69,376.64 257.71,379.60 257.84,378.05 258.00,377.46 258.01,379.90 258.10,378.51 258.22,378.10 258.34,378.18 258.42,378.69 258.55,377.95 258.63,378.81 258.73,378.41 258.85,378.11 258.91,379.11 259.04,377.86 259.08,379.40 259.20,378.06 259.25,379.31 259.35,378.32 259.46,378.38 259.63,377.33 259.63,379.93 259.74,378.26 259.85,378.33 261.18,359.08 261.71,371.64 261.83,378.09 261.86,379.55 262.07,376.72 262.12,379.17 262.37,376.11 262.45,378.75 262.55,378.46 262.60,379.25 262.71,378.23 262.83,378.06 263.00,377.38 263.01,379.81 263.12,378.28 263.22,378.36 263.35,378.05 263.59,376.18 263.67,378.68 263.82,377.72 264.01,376.98 265.15,362.14 265.67,371.77 265.73,379.01 265.95,376.65 266.15,376.83 266.45,375.22 266.47,379.77 266.61,377.81 266.66,379.19 266.86,376.82 266.86,379.98 266.96,378.42 267.07,378.34 267.20,377.96 268.83,354.42 269.13,375.21 269.38,376.09 269.52,377.81 269.68,377.45 269.98,375.32 269.99,379.75 270.07,378.75 270.35,375.60 272.83,341.09 277.02,314.08 281.22,314.01 285.42,313.97 289.61,314.17 293.80,314.03 298.01,313.79 302.19,314.32 306.39,314.06 310.75,311.41 314.77,316.73 318.97,314.09 323.17,313.94 327.36,314.16 331.56,313.99 335.74,314.19 339.94,314.04 344.20,313.03 348.33,314.98 352.73,310.84 356.72,317.35 360.99,312.89 365.11,315.19 369.30,314.08 373.50,314.03 377.69,314.13 381.90,313.82 386.08,314.31 390.29,313.76 394.45,314.57 398.67,313.65 402.85,314.26 407.05,314.03 411.23,314.30 415.43,313.91 419.62,314.14 423.83,313.92 428.04,313.83 432.20,314.46 436.40,314.00 436.74,374.72 436.82,378.76 437.02,376.86 437.05,379.47 437.14,378.55 437.25,378.24 437.36,378.38 437.48,378.07 437.59,378.36 437.72,377.88 437.84,378.19 437.93,378.44 438.04,378.31 438.20,377.59 438.23,379.39 438.38,377.69 438.42,379.38 438.51,378.60 438.60,378.50 438.73,378.09 438.82,378.50 438.90,378.71 438.98,378.80 439.07,378.63 439.14,378.84 439.18,379.43 439.28,378.35 439.35,378.89 439.39,379.47 439.47,378.76 439.58,378.15 439.58,379.99 439.65,378.92 439.70,379.26 439.83,377.97 439.86,379.48 439.93,378.93 439.98,379.26 440.03,379.12 440.15,378.12 440.22,378.93 440.27,379.17 440.34,378.92 440.40,379.10 440.53,377.90 440.57,379.46 440.60,379.51 440.75,377.65 440.81,379.09 440.99,377.18 441.16,377.34 442.03,366.26 442.25,376.49 442.34,378.65 442.42,378.71 442.54,378.20 442.60,379.05 442.81,376.63 442.85,379.31 442.87,379.67 442.91,379.51 442.99,378.64 443.08,378.61 443.19,378.25 443.28,378.62 443.45,377.32 443.46,379.84 443.58,378.10 443.61,379.46 443.73,378.22 443.86,377.87 443.87,379.83 443.94,379.00 444.04,378.42 444.19,377.67 444.22,379.49 444.32,378.49 444.47,377.58 444.51,379.33 444.72,376.77 444.80,378.71 444.88,378.70 444.99,378.24 445.19,376.92 445.19,379.94 445.31,378.13 445.38,378.97 445.46,378.69 445.60,377.78 445.71,378.31 446.20,372.24 446.32,378.13 446.44,378.08 446.65,376.81 446.80,377.54 446.80,379.99 446.94,377.83 446.94,379.98 447.09,377.67 447.22,378.06 447.33,378.16 447.44,378.25 447.60,377.48 447.75,377.64 447.93,377.17 447.97,379.47 448.03,378.97 448.09,379.12 448.20,378.20 448.26,379.16 448.33,378.88 448.48,377.68 448.48,379.98 448.58,378.45 448.74,377.47 448.74,379.99 448.84,378.43 448.96,378.04 449.08,378.12 449.19,378.29 449.30,378.31 449.40,378.35 449.51,378.23 449.62,378.29 449.66,379.45 449.82,377.48 449.99,377.24 450.14,377.73 450.26,378.13 450.34,378.76 450.44,378.34 450.54,378.49 450.68,377.78 450.72,379.30 450.84,378.10 450.92,378.77 451.04,378.10 451.16,378.17 451.31,377.65 451.47,377.45 451.54,378.98 451.63,378.49 451.72,378.70 451.81,378.49 451.92,378.23 452.01,378.62 452.23,376.58 452.26,379.60 452.26,379.98 452.37,378.16 452.51,377.82 452.57,379.04 452.57,379.99 452.71,377.84 452.81,378.42 452.85,379.44 452.94,378.47 452.99,379.35 453.11,378.06 453.20,378.60 453.20,380.00 453.33,378.00 453.42,378.58 453.50,378.69 453.55,379.17 453.62,378.94 453.80,377.23 453.80,379.97 453.80,379.98 453.87,378.92 454.04,377.28 454.68,370.00 457.39,337.34 461.82,310.43 465.77,317.76 469.97,314.04 473.29,327.84 473.30,379.81 475.73,341.88 479.92,314.10 484.11,314.11 488.30,314.08 492.53,313.53 496.71,314.27 500.90,314.19 505.09,314.15 509.31,313.60 513.47,314.52 517.24,320.75 517.36,378.14 517.48,378.16 517.60,378.02 517.70,378.53 517.79,378.56 517.90,378.22 518.01,378.30 518.09,378.71 518.22,377.95 518.31,378.59 518.41,378.43 518.48,378.97 518.60,378.10 518.81,376.61 518.82,379.84 518.99,377.47 519.03,379.28 519.24,376.77 519.34,378.45 519.37,379.48 519.38,379.80 519.43,379.23 519.56,377.94 519.56,379.98 519.73,377.37 519.73,379.98 519.80,378.86 519.92,378.09 519.97,379.31 520.02,379.17 520.14,378.06 520.15,379.99 520.24,378.51 520.34,378.39 520.44,378.49 520.51,378.96 520.55,379.33 520.61,379.00 520.69,378.74 520.79,378.44 520.84,379.22 520.90,379.07 520.97,378.94 521.03,379.04 521.09,379.01 521.21,378.05 521.33,378.15 521.38,379.24 521.55,377.36 521.79,376.16 521.86,378.92 522.87,364.16 522.97,378.40 523.08,378.37 523.19,378.28 523.27,378.59 523.38,378.39 523.52,377.78 523.59,378.83 523.71,378.15 523.80,378.67 523.95,377.51 524.01,379.07 524.11,378.53 524.21,378.31 524.33,378.15 524.51,377.26 524.61,378.32 524.77,377.56 524.85,378.70 524.99,377.87 525.09,378.36 525.21,378.04 525.33,378.26 525.44,378.14 525.57,378.07 525.63,379.07 525.70,378.76 525.84,377.83 525.97,377.99 526.06,378.66 526.17,378.21 526.29,378.15 526.38,378.57 526.44,379.07 526.54,378.40 526.60,379.01 526.69,378.60 526.79,378.42 526.87,378.78 526.91,379.33 527.03,378.14 527.15,378.10 527.19,379.39 527.28,378.57 527.49,376.67 527.59,378.39 527.72,377.98 527.82,378.42 527.99,377.33 528.01,379.71 528.13,378.20 528.25,378.12 528.37,378.04 528.60,376.37 528.65,379.28 528.77,378.12 528.86,378.56 528.97,378.31 528.99,379.58 529.11,378.12 529.24,378.04 529.45,376.69 529.54,378.48 529.66,378.25 529.77,378.16 529.85,378.75 530.00,377.61 530.13,378.03 530.23,378.39 530.27,379.37 530.27,379.96 530.37,378.45 530.52,377.63 530.66,377.88 530.68,379.70 530.77,378.63 530.87,378.41 530.99,378.07 531.09,378.42 531.18,378.59 531.30,378.08 531.44,377.85 531.58,377.75 531.69,378.32 531.91,376.46 531.93,379.78 532.02,378.52 532.15,378.04 532.25,378.42 532.37,378.08 532.47,378.35 532.57,378.44 532.64,378.88 532.77,378.05 532.94,377.32 533.09,377.65 533.20,378.30 533.31,378.14 533.41,378.43 533.55,377.92 533.64,378.50 533.76,378.18 533.88,378.05 533.98,378.47 534.06,378.68 534.15,378.68 534.20,379.17 534.35,377.69 534.35,379.96 534.49,377.74 534.49,379.99 534.59,378.47 534.66,378.94 534.71,379.23 534.81,378.41 534.85,379.28 535.01,377.53 535.04,379.49 535.10,379.18 535.18,378.67 535.29,378.23 535.29,379.98 535.36,379.02 535.45,378.57 535.51,379.10 535.63,378.04 535.74,378.21 535.74,379.98 535.83,378.71 535.89,378.96 535.97,378.83 536.07,378.38 536.32,376.02 536.44,378.14 536.53,378.64 536.78,376.01 538.64,350.87 542.83,314.04 547.42,307.87 551.24,320.00 555.41,314.40 559.61,313.88 562.45,335.44 562.57,378.17 562.65,378.60 562.80,377.72 562.91,378.29 563.02,378.20 563.14,378.17 563.25,378.23 563.36,378.24 563.48,378.15 563.60,378.16 563.70,378.43 563.82,378.15 563.90,378.70 564.08,377.13 564.12,379.33 564.20,378.75 564.25,379.28 564.40,377.58 564.50,378.43 564.56,379.05 564.66,378.43 564.71,379.35 564.80,378.54 564.90,378.42 564.97,378.96 565.01,379.25 565.05,379.37 565.10,379.24 565.20,378.49 565.24,379.32 565.28,379.31 565.34,379.14 565.41,378.84 565.51,378.49 565.63,378.09 565.64,379.79 565.70,379.19 565.77,378.79 565.85,378.79 565.95,378.40 565.99,379.39 566.07,378.77 566.12,379.14 566.17,379.24 566.30,378.05 566.45,377.58 566.53,378.74 566.64,378.30 566.86,376.42 567.78,365.61 568.06,375.56 568.12,379.05 568.24,378.18 568.34,378.36 568.42,378.75 568.63,376.71 568.65,379.69 568.78,378.06 568.87,378.58 568.99,377.99 569.09,378.47 569.16,378.96 569.25,378.47 569.43,377.32 569.43,379.88 569.51,378.81 569.61,378.41 569.79,377.24 569.88,378.46 569.97,378.66 570.13,377.53 570.14,379.76 570.18,379.32 570.37,377.13 570.37,379.98 570.48,378.22 570.56,378.83 570.57,379.72 570.72,377.76 570.72,379.98 570.84,378.12 570.93,378.51 571.05,378.19 571.15,378.42 571.42,375.64 571.47,379.36 571.47,379.94 571.69,376.55 571.69,379.99 571.78,378.64 571.82,379.33 571.99,377.38 572.10,378.13 572.24,377.91 572.36,378.14 572.41,379.20 572.51,378.39 572.63,378.17 572.70,378.87 572.82,378.08 572.92,378.49 573.03,378.16 573.14,378.32 573.28,377.73 573.41,377.94 573.59,377.23 573.77,377.22 573.90,377.94 573.98,378.70 574.09,378.26 574.15,379.09 574.27,378.12 574.37,378.41 574.50,377.90 574.56,379.16 574.64,378.76 574.79,377.55 574.89,378.48 574.98,378.56 575.06,378.78 575.18,378.14 575.30,378.06 575.45,377.70 575.47,379.69 575.64,377.30 575.78,377.74 575.82,379.38 576.01,377.06 576.03,379.64 576.13,378.45 576.23,378.49 576.38,377.51 576.45,378.91 576.60,377.63 576.71,378.32 576.83,378.16 577.09,375.91 577.09,379.97 577.12,379.54 577.21,378.54 577.33,378.23 577.44,378.13 577.55,378.27 577.72,377.40 577.80,378.67 577.92,378.12 578.04,378.10 578.14,378.54 578.22,378.74 578.35,377.88 578.46,378.35 578.56,378.30 578.69,378.08 578.98,375.46 578.99,379.76 579.09,378.52 579.23,377.70 579.34,378.36 579.43,378.54 579.57,377.77 579.69,378.11 579.69,379.99 579.79,378.41 579.87,378.78 579.93,379.02 580.03,378.44 580.14,378.26 580.14,379.99 580.19,379.23 580.26,378.99 580.36,378.41 580.39,379.43 580.45,379.15 580.56,378.16 580.61,379.22 580.67,379.10 580.77,378.51 580.86,378.52 580.92,379.12 581.06,377.65 581.25,377.15 581.98,368.53 584.78,335.93 588.98,314.00 593.17,314.01 597.36,314.20 601.55,314.14 605.76,313.78 606.65,366.04 606.76,378.27 606.88,378.06 607.07,377.14 607.09,379.54 607.24,377.70 607.34,378.49 607.46,378.00 607.57,378.32 607.70,377.96 607.80,378.42 607.92,378.09 608.05,377.99 608.16,378.34 608.29,377.94 608.40,378.24 608.53,377.95 608.63,378.46 608.68,379.10 608.77,378.61 608.86,378.56 608.98,378.18 609.10,378.09 609.15,379.16 609.22,378.95 609.35,378.01 609.38,379.45 609.45,378.94 609.57,378.17 609.57,379.99 609.62,379.18 609.70,378.80 609.87,377.23 609.87,379.99 609.96,378.68 610.05,378.46 610.22,377.36 610.28,379.02 610.38,378.43 610.44,379.10 610.50,379.09 610.70,376.86 610.74,379.44 610.84,378.32 611.00,377.56 611.21,376.60 612.19,364.59 612.27,378.73 612.37,378.44 612.48,378.30 612.57,378.58 612.67,378.47 612.78,378.31 612.87,378.58 612.97,378.41 613.18,376.71 613.23,379.17 613.28,379.26 613.41,377.86 613.48,378.98 613.56,378.71 613.71,377.65 613.82,378.27 613.94,378.14 614.00,378.99 614.09,378.55 614.24,377.68 614.41,377.33 614.49,378.71 614.64,377.72 614.70,379.11 614.83,377.91 615.00,377.32 615.11,378.20 615.31,376.97 615.42,378.18 615.76,374.67 615.87,378.37 616.02,377.57 616.15,378.00 616.21,379.10 616.31,378.36 616.51,376.91 616.63,378.03 616.76,377.96 616.92,377.44 617.06,377.84 617.12,379.05 617.28,377.46 617.34,379.17 617.45,378.14 617.52,379.04 617.67,377.65 617.94,375.66 618.00,379.07 618.13,377.94 618.32,377.08 618.51,376.95 618.69,377.12 618.71,379.80 618.81,378.43 618.86,379.11 619.03,377.31 619.13,378.47 619.25,378.13 619.34,378.65 619.51,377.19 619.59,378.83 619.67,378.77 619.80,377.97 619.93,377.94 620.12,377.04 620.23,378.16 620.38,377.74 620.51,377.96 620.61,378.41 620.86,376.08 620.86,379.97 621.04,377.17 621.15,378.32 621.32,377.22 621.39,378.87 621.50,378.35 621.60,378.38 621.77,377.35 621.88,378.27 622.02,377.80 622.20,377.15 622.38,377.14 622.43,379.36 622.58,377.65 622.66,378.70 622.80,377.72 622.94,377.86 623.10,377.51 623.26,377.52 623.30,379.35 623.50,376.81 623.64,377.85 624.47,366.84 624.66,377.03 624.78,378.17 625.03,376.08 625.13,378.47 625.30,377.29 625.46,377.46 625.53,378.82 625.61,378.75 625.71,378.48 625.79,378.73 625.94,377.67 626.01,378.90 626.13,378.15 626.19,379.01 626.38,377.02 626.57,377.08 626.75,377.16 630.92,314.38 635.10,314.25 639.31,313.92 643.50,314.11 647.69,314.15 651.88,314.11 656.41,308.82 656.41,380.00 656.58,377.21 659.19,339.05 659.34,377.66 661.61,344.29 662.03,373.42 664.08,347.77 664.41,374.83 664.58,377.31 668.67,315.59 672.87,314.08 677.19,312.03 681.26,316.02 685.45,314.16 689.66,313.82 693.83,314.37 698.03,314.08 702.25,313.63 706.42,314.40 710.61,314.16 714.81,313.94 719.00,314.06 723.21,313.90 727.39,314.26 731.61,313.71 735.78,314.35 739.98,314.12 744.17,314.07 748.37,314.01 752.56,314.00 756.75,314.13 760.95,313.97 765.17,313.75 769.36,314.04 773.55,314.19 777.72,314.41 781.96,313.36 786.11,314.76 790.31,313.94 794.51,314.04 798.69,314.21 802.88,314.10 807.08,314.04 811.29,313.88 815.47,314.22 819.67,313.93 823.87,314.03 828.06,314.10 832.25,314.20 836.45,313.93 840.65,313.95 844.84,314.20 847.80,333.47 850.69,334.58 851.13,372.96 851.35,376.52 851.39,379.39 851.58,377.02 851.94,374.39 852.17,376.39 852.68,371.98 853.36,369.32 854.06,368.93 854.77,368.92 855.50,368.48 856.15,369.76 856.86,368.88 857.54,369.22 858.26,368.80 858.32,379.04 858.95,370.09 859.65,368.99 860.34,369.13 861.07,368.56 861.75,369.20 862.44,369.19 862.53,378.56 863.15,370.26 863.85,368.98 864.55,369.13 865.24,369.05 865.94,369.02 866.65,368.90 866.71,379.07 867.34,370.01 868.05,368.85 868.74,369.11 869.43,369.20 870.13,369.05 870.84,368.83 870.90,378.96 871.54,370.03 872.23,369.12 872.93,368.92 873.62,369.21 874.33,368.85 875.03,368.96 875.10,378.95 875.73,370.08 876.43,368.95 877.13,369.04 877.82,369.11 878.52,368.97 879.23,368.85 879.29,379.10 879.92,370.08 880.64,368.77 881.31,369.42 882.01,368.95 882.71,368.95 883.41,369.00 883.48,378.99 884.11,370.05 884.82,368.86 885.52,369.03 886.21,369.17 886.91,368.93 887.61,368.97 887.70,378.71 887.91,376.68 888.31,373.72 889.01,368.96 889.73,368.59 890.40,369.48 891.30,365.93 891.60,375.22 891.70,378.41 891.85,377.62 891.99,377.81 892.73,368.35 892.97,376.28 892.99,379.70 893.80,367.28 894.07,375.79 894.12,379.09 895.05,365.42 895.94,366.07 896.18,376.13 896.19,379.99 896.19,380.00 897.11,365.51 897.17,379.06 900.29,330.90 900.62,374.75 901.44,367.15 901.46,379.68 904.47,332.69 908.73,313.02 912.86,315.16 917.05,314.00 918.72,353.80 921.24,340.41 925.43,314.16 930.50,300.16 931.11,370.53 931.44,374.78 932.33,366.05 932.38,379.12 933.67,359.76 935.05,358.29 939.28,313.49 943.44,314.61 947.63,314.08 951.81,314.31 956.02,313.91 960.21,314.03 961.46,360.43 961.46,379.99 965.13,322.35 965.19,379.01 972.82,260.00 977.00,314.31 983.94,270.96 985.41,356.87 989.58,314.32 993.76,314.38 995.18,357.72 995.26,378.71 997.42,346.03 999.52,347.02 999.59,378.78 999.73,377.94 1000.02,375.32 1000.09,379.00 1000.43,374.56 1000.53,378.57 1000.53,379.89 1000.60,378.89 1000.66,379.13 1000.72,379.05 1000.81,378.64 1000.85,379.32 1000.90,379.23 1000.97,378.89 1002.62,354.06 1003.05,373.19 1003.14,378.58 1004.91,352.29 1004.99,378.64 1006.93,349.48 1007.02,378.63 1007.90,366.11 1012.71,304.41 1012.79,378.84 1013.34,371.28 1015.49,346.26 1018.60,330.99 1019.60,364.29 1020.16,371.33 1021.65,356.47 1022.21,371.28 1023.81,354.83 1026.44,338.65 1026.91,372.54 1027.20,375.48 1028.02,367.04 1028.64,370.34 1031.21,339.64 1031.52,375.00 1031.94,373.51 1032.69,368.21 1032.70,379.72 1032.98,375.64 1034.84,350.81 1039.05,313.72 1043.25,314.02 1047.42,314.40 1051.63,313.95 1055.83,313.89 1060.00,314.39 1064.25,313.23" stroke="#bd491e" fill="none"/></svg>
